<svg xmlns="http://www.w3.org/2000/svg" viewBox="0 -642 4837 682" role="img" aria-label="MAKARON">
  <path fill="#f5f5f7" d="M484 -149Q471 -139 450.5 -132.0Q430 -125 403 -125Q367 -125 343.5 -134.0Q320 -143 313 -165Q285 -254 267.0 -308.0Q249 -362 239 -403H234Q231 -344 229.5 -295.5Q228 -247 227.5 -201.5Q227 -156 225.5 -108.5Q224 -61 221 -4Q208 0 187.0 4.0Q166 8 145 8Q102 8 77.0 -6.0Q52 -20 52 -57Q52 -82 54.0 -125.5Q56 -169 59.5 -223.5Q63 -278 66.5 -338.0Q70 -398 74.0 -457.0Q78 -516 81 -567Q89 -580 116.0 -595.0Q143 -610 192 -610Q245 -610 275.5 -593.5Q306 -577 319 -540Q331 -508 345.0 -464.5Q359 -421 373.0 -376.5Q387 -332 398 -297H403Q427 -380 451.5 -459.5Q476 -539 495 -591Q510 -599 534.0 -604.5Q558 -610 586 -610Q635 -610 666.0 -595.5Q697 -581 702 -554Q706 -534 710.5 -493.0Q715 -452 720.0 -399.0Q725 -346 730.0 -288.5Q735 -231 739.5 -177.0Q744 -123 747.0 -79.5Q750 -36 751 -11Q734 -1 715.5 3.5Q697 8 668 8Q631 8 604.5 -5.0Q578 -18 576 -56Q572 -129 570.0 -192.0Q568 -255 567.0 -307.0Q566 -359 564 -398H559Q549 -359 530.0 -300.0Q511 -241 484 -149Z M1147 -459H1141Q1132 -431 1121.0 -398.0Q1110 -365 1098.0 -328.5Q1086 -292 1075 -253L1053 -140Q1047 -120 1042.5 -101.0Q1038 -82 1033.5 -65.0Q1029 -48 1025.0 -32.0Q1021 -16 1017 -1Q1004 3 988.0 7.0Q972 11 950 11Q900 11 875.0 -6.5Q850 -24 850 -55Q850 -69 854.0 -83.0Q858 -97 863 -116Q871 -148 887.0 -198.5Q903 -249 922.5 -307.5Q942 -366 961.5 -422.0Q981 -478 997.0 -522.5Q1013 -567 1021 -588Q1038 -598 1073.0 -607.0Q1108 -616 1142 -616Q1192 -616 1231.0 -601.5Q1270 -587 1280 -555Q1298 -504 1318.5 -435.5Q1339 -367 1360.5 -292.5Q1382 -218 1402.0 -147.5Q1422 -77 1437 -21Q1425 -8 1401.0 1.0Q1377 10 1344 10Q1295 10 1276.0 -6.5Q1257 -23 1248 -57L1223 -153L1203 -256Q1193 -295 1183.0 -331.0Q1173 -367 1164.0 -399.5Q1155 -432 1147 -459ZM978 -126 1047 -261H1267L1288 -126Z M1639 -326 1843 -340Q1920 -255 1982.5 -188.0Q2045 -121 2082 -81Q2082 -38 2053.0 -13.5Q2024 11 1986 11Q1945 11 1919.0 -9.5Q1893 -30 1869 -58ZM1844 -265 1615 -248 1932 -612Q2000 -612 2029.5 -586.5Q2059 -561 2059 -526Q2059 -500 2046.0 -477.0Q2033 -454 2004 -425ZM1549 -442H1724V-1Q1713 2 1690.0 5.0Q1667 8 1643 8Q1591 8 1570.0 -10.5Q1549 -29 1549 -75ZM1724 -211H1549V-608Q1561 -610 1584.5 -613.5Q1608 -617 1630 -617Q1680 -617 1702.0 -600.0Q1724 -583 1724 -534Z M2449 -459H2443Q2434 -431 2423.0 -398.0Q2412 -365 2400.0 -328.5Q2388 -292 2377 -253L2355 -140Q2349 -120 2344.5 -101.0Q2340 -82 2335.5 -65.0Q2331 -48 2327.0 -32.0Q2323 -16 2319 -1Q2306 3 2290.0 7.0Q2274 11 2252 11Q2202 11 2177.0 -6.5Q2152 -24 2152 -55Q2152 -69 2156.0 -83.0Q2160 -97 2165 -116Q2173 -148 2189.0 -198.5Q2205 -249 2224.5 -307.5Q2244 -366 2263.5 -422.0Q2283 -478 2299.0 -522.5Q2315 -567 2323 -588Q2340 -598 2375.0 -607.0Q2410 -616 2444 -616Q2494 -616 2533.0 -601.5Q2572 -587 2582 -555Q2600 -504 2620.5 -435.5Q2641 -367 2662.5 -292.5Q2684 -218 2704.0 -147.5Q2724 -77 2739 -21Q2727 -8 2703.0 1.0Q2679 10 2646 10Q2597 10 2578.0 -6.5Q2559 -23 2550 -57L2525 -153L2505 -256Q2495 -295 2485.0 -331.0Q2475 -367 2466.0 -399.5Q2457 -432 2449 -459ZM2280 -126 2349 -261H2569L2590 -126Z M3024 -329H3074Q3116 -329 3143.0 -348.5Q3170 -368 3170 -406Q3170 -444 3145.5 -463.5Q3121 -483 3068 -483Q3055 -483 3045.0 -482.0Q3035 -481 3024 -479ZM3092 -196H2851V-549Q2851 -570 2863.0 -581.5Q2875 -593 2894 -600Q2928 -612 2973.0 -617.5Q3018 -623 3069 -623Q3207 -623 3277.0 -564.5Q3347 -506 3347 -408Q3347 -347 3312.5 -299.0Q3278 -251 3220.5 -223.5Q3163 -196 3092 -196ZM3055 -235 3214 -267Q3236 -237 3259.0 -208.0Q3282 -179 3302.5 -152.0Q3323 -125 3340.0 -102.0Q3357 -79 3367 -62Q3357 -28 3330.5 -9.0Q3304 10 3271 10Q3228 10 3205.5 -9.0Q3183 -28 3164 -59ZM2851 -264H3026V-1Q3015 2 2992.0 5.0Q2969 8 2945 8Q2893 8 2872.0 -10.5Q2851 -29 2851 -75Z M4093 -304Q4093 -200 4051.5 -128.0Q4010 -56 3938.5 -19.0Q3867 18 3776 18Q3685 18 3613.5 -19.0Q3542 -56 3501.0 -128.0Q3460 -200 3460 -304Q3460 -408 3502.0 -479.5Q3544 -551 3615.5 -588.0Q3687 -625 3776 -625Q3865 -625 3937.0 -588.0Q4009 -551 4051.0 -479.5Q4093 -408 4093 -304ZM3913 -304Q3913 -393 3876.0 -438.5Q3839 -484 3776 -484Q3715 -484 3677.5 -439.0Q3640 -394 3640 -304Q3640 -213 3677.5 -168.0Q3715 -123 3777 -123Q3839 -123 3876.0 -168.0Q3913 -213 3913 -304Z M4223 -400H4384Q4388 -354 4389.5 -312.0Q4391 -270 4391.0 -232.5Q4391 -195 4391 -159V0Q4381 2 4358.5 5.0Q4336 8 4313 8Q4263 8 4243.0 -9.5Q4223 -27 4223 -72ZM4772 -210H4611Q4605 -280 4604.5 -339.0Q4604 -398 4604 -451V-609Q4615 -611 4637.0 -614.0Q4659 -617 4682 -617Q4732 -617 4752.0 -599.5Q4772 -582 4772 -537ZM4772 -264V-21Q4758 -8 4731.5 0.0Q4705 8 4668 8Q4631 8 4598.0 -3.0Q4565 -14 4544 -56L4445 -258Q4435 -279 4426.5 -297.5Q4418 -316 4410.0 -336.0Q4402 -356 4392 -380L4223 -343V-575Q4237 -595 4266.0 -605.0Q4295 -615 4328 -615Q4365 -615 4398.5 -603.5Q4432 -592 4452 -551L4552 -349Q4562 -329 4570.5 -310.0Q4579 -291 4587.5 -271.0Q4596 -251 4605 -227Z"/>
</svg>
